<?xml version="1.0" encoding="UTF-8"?>
<!-- Created with Inkscape (http://www.inkscape.org/) -->
<svg width="533.33" height="533.33" version="1.1" viewBox="0 0 533.33 533.33" xmlns="http://www.w3.org/2000/svg" xmlns:xlink="http://www.w3.org/1999/xlink">
 <g transform="translate(-.00041558 -.16303)">
  <g>
   <path transform="matrix(1.3333 0 0 -1.3333 348.39 177.86)" d="m0 0c-8.052 1.986-15.534 4.837-23.202 5.505-14.199 1.236-26.384-4.246-36.462-14.415-12.346-12.457-24.631-24.977-37.009-37.401-18.735-18.806-45.211-20.162-65.621-3.435-5.64 4.623-5.983 8.785-0.786 14.062 19.033 19.331 37.887 38.853 57.297 57.791 23.041 22.48 60.961 22.119 84.114-0.332 7.372-7.148 14.499-14.555 21.669-21.775" fill="#06f"/>
   <path transform="matrix(1.3333 0 0 -1.3333 362.83 266.6)" d="m0 0c-15.374 0.249-26.369 4.637-35.422 13.559-9.311 9.176-18.48 18.503-27.594 27.88-5.323 5.477-5.022 8.874 0.826 14.033 17.603 15.532 44.239 15.851 61.852-0.043 10.726-9.678 20.55-20.384 30.705-30.703 4.161-4.229 3.406-8.4-0.755-12.153-9.206-8.306-19.953-12.594-29.612-12.573" fill="#87ffbc"/>
   <path transform="matrix(1.3333 0 0 -1.3333 189 356.31)" d="m0 0c3.977-1.071 10.94-3.897 18.122-4.682 15.232-1.667 28.166 4.176 38.922 14.968 12.542 12.584 24.821 25.439 37.469 37.912 17.904 17.655 45.389 18.638 64.041 2.576 6.335-5.455 6.746-8.691 1.023-14.526-19.148-19.523-38.065-39.303-57.787-58.221-21.622-20.741-56.347-21.863-79.167-2.472-9.13 7.757-16.459 17.683-22.623 24.445" fill="#06f"/>
   <path transform="matrix(1.3333 0 0 -1.3333 213.44 356.27)" d="m0 0c-14.96 0.573-26.015 5.249-35.151 14.477-8.871 8.961-17.825 17.838-26.625 26.869-5.371 5.511-5.124 8.924 0.609 14.164 17.128 15.655 44.968 15.767 62.432-0.348 10.452-9.643 20.138-20.135 30.171-30.242 4.242-4.273 3.502-8.345-0.596-12.137-9.314-8.62-20.357-12.716-30.84-12.783" fill="#87ffbc"/>
  </g>
  <g fill="none" stroke="#06f" stroke-miterlimit="10" stroke-width="2">
   <path transform="matrix(1.3333 0 0 -1.3333 226.14 266.75)" d="m0 0c0-2.14-1.735-3.875-3.875-3.875s-3.875 1.735-3.875 3.875 1.735 3.875 3.875 3.875 3.875-1.735 3.875-3.875z"/>
   <path transform="matrix(1.3333 0 0 -1.3333 317.25 266.75)" d="m0 0c0-2.14-1.735-3.875-3.875-3.875s-3.875 1.735-3.875 3.875 1.735 3.875 3.875 3.875 3.875-1.735 3.875-3.875z"/>
   <path transform="matrix(1.3333 0 0 -1.3333 226.14 266.48)" d="m0 0h8.878l15.353-14.056 16.177 27.708 11.13-13.652h9.038"/>
  </g>
 </g>
</svg>
